HIERARCHY
ROOT Hips
{
	OFFSET 0.000000 0.000000 0.000000
	CHANNELS 6 Xposition Yposition Zposition Xrotation Yrotation Zrotation
	JOINT LeftUpLeg_virtual
	{
		OFFSET 0.000000 0.000000 0.000000
		CHANNELS 3 Xrotation Yrotation Zrotation
		JOINT LeftUpLeg
		{
			OFFSET 11.394100 -6.187798 -0.413800
			CHANNELS 3 Xrotation Yrotation Zrotation
			JOINT LeftLeg
			{
				OFFSET 0.430247 -32.302673 3.732800
				CHANNELS 3 Xrotation Yrotation Zrotation
				JOINT LeftFoot
				{
					OFFSET -0.430247 -48.264931 -6.423300
					CHANNELS 3 Xrotation Yrotation Zrotation
					JOINT LeftToeBase
					{
						OFFSET 4.230900 -16.068199 23.438400
						CHANNELS 3 Xrotation Yrotation Zrotation
						JOINT LeftToe_End
						{
							OFFSET 4.510700 0.695400 19.974600
							CHANNELS 3 Xrotation Yrotation Zrotation
							End Site
							{
								OFFSET 0 0 0
							}
						}
					}
				}
			}
		}
	}
	JOINT RightUpLeg_virtual
	{
		OFFSET 0.000000 0.000000 0.000000
		CHANNELS 3 Xrotation Yrotation Zrotation
		JOINT RightUpLeg
		{
			OFFSET -11.333700 -6.187798 -0.413800
			CHANNELS 3 Xrotation Yrotation Zrotation
			JOINT RightLeg
			{
				OFFSET -0.430392 -32.302628 3.733000
				CHANNELS 3 Xrotation Yrotation Zrotation
				JOINT RightFoot
				{
					OFFSET 0.430392 -48.264973 -6.423500
					CHANNELS 3 Xrotation Yrotation Zrotation
					JOINT RightToeBase
					{
						OFFSET -4.230900 -16.068199 23.438400
						CHANNELS 3 Xrotation Yrotation Zrotation
						JOINT RightToe_End
						{
							OFFSET -4.510700 0.695400 19.974600
							CHANNELS 3 Xrotation Yrotation Zrotation
							End Site
							{
								OFFSET 0 0 0
							}
						}
					}
				}
			}
		}
	}
	JOINT Spine_virtual
	{
		OFFSET 0.000000 0.000000 0.000000
		CHANNELS 3 Xrotation Yrotation Zrotation
		JOINT Spine
		{
			OFFSET -0.002400 12.777504 0.315300
			CHANNELS 3 Xrotation Yrotation Zrotation
			JOINT Spine1
			{
				OFFSET -0.002067 5.816869 0.032633
				CHANNELS 3 Xrotation Yrotation Zrotation
				JOINT Spine1_split
				{
					OFFSET -0.002067 5.816869 0.032633
					CHANNELS 3 Xrotation Yrotation Zrotation
					JOINT Spine2
					{
						OFFSET -0.002067 5.816869 0.032633
						CHANNELS 3 Xrotation Yrotation Zrotation
						JOINT Neck_virtual
						{
							OFFSET 0.000000 0.000000 0.000000
							CHANNELS 3 Xrotation Yrotation Zrotation
							JOINT Neck
							{
								OFFSET -0.003700 21.199493 -0.826900
								CHANNELS 3 Xrotation Yrotation Zrotation
								JOINT Head
								{
									OFFSET 0.000000 20.442200 4.834800
									CHANNELS 3 Xrotation Yrotation Zrotation
									JOINT HeadTop_End
									{
										OFFSET 0.000000 34.668396 4.968400
										CHANNELS 3 Xrotation Yrotation Zrotation
										End Site
										{
											OFFSET 0 0 0
										}
									}
								}
							}
						}
						JOINT LeftShoulder_virtual
						{
							OFFSET 0.000000 0.000000 0.000000
							CHANNELS 3 Xrotation Yrotation Zrotation
							JOINT LeftShoulder
							{
								OFFSET 3.288150 8.794197 -1.372250
								CHANNELS 3 Xrotation Yrotation Zrotation
								JOINT LeftShoulder_split
								{
									OFFSET 3.288150 8.794197 -1.372250
									CHANNELS 3 Xrotation Yrotation Zrotation
									JOINT LeftArm
									{
										OFFSET 11.953299 -2.279007 -0.146200
										CHANNELS 3 Xrotation Yrotation Zrotation
										JOINT LeftForeArm
										{
											OFFSET 18.448900 0.000000 0.000000
											CHANNELS 3 Xrotation Yrotation Zrotation
											JOINT LeftHand
											{
												OFFSET 29.527798 0.000000 0.000000
												CHANNELS 3 Xrotation Yrotation Zrotation
												End Site
												{
													OFFSET 0 0 0
												}
											}
										}
									}
								}
							}
						}
						JOINT RightShoulder_virtual
						{
							OFFSET 0.000000 0.000000 0.000000
							CHANNELS 3 Xrotation Yrotation Zrotation
							JOINT RightShoulder
							{
								OFFSET -3.249400 8.794197 -1.372250
								CHANNELS 3 Xrotation Yrotation Zrotation
								JOINT RightShoulder_split
								{
									OFFSET -3.249400 8.794197 -1.372250
									CHANNELS 3 Xrotation Yrotation Zrotation
									JOINT RightArm
									{
										OFFSET -11.953299 -2.279007 -0.146200
										CHANNELS 3 Xrotation Yrotation Zrotation
										JOINT RightForeArm
										{
											OFFSET -18.448900 0.000000 0.000000
											CHANNELS 3 Xrotation Yrotation Zrotation
											JOINT RightHand
											{
												OFFSET -29.527802 0.000000 0.000000
												CHANNELS 3 Xrotation Yrotation Zrotation
												End Site
												{
													OFFSET 0 0 0
												}
											}
										}
									}
								}
							}
						}
					}
				}
			}
		}
	}
}
MOTION
Frames: 7
Frame Time: 0.03333333
11.334779 23.761505 -35.267879 0.000000 0.000000 0.000000 68.728328 6.970344 -3.701984 -13.192227 -8.260752 29.286533 33.269851 -0.792182 -11.976805 33.044974 49.195571 -28.252924 -6.228332 -8.630737 -4.858524 0.000000 0.000000 0.000000 70.964682 3.153633 -3.417624 -42.080505 -38.064958 -37.122771 38.197614 24.865194 -10.813491 45.241742 -41.200726 35.438068 16.029194 17.544094 6.270367 0.000000 0.000000 0.000000 75.358140 6.384986 -6.394101 15.530334 0.910926 -2.160195 -8.389237 -3.757418 -0.126174 -0.021905 0.430952 -0.017839 0.000000 0.000000 0.000000 -6.824482 -0.957701 1.220681 -8.057144 1.555208 12.584545 -25.358961 -35.646969 -11.582986 0.000000 0.000000 0.000000 -11.376659 -1.277579 -0.904124 -0.757386 -11.546850 4.921698 -0.055659 1.423771 -5.396693 29.917345 -32.439147 -54.563356 -6.928202 -36.540853 -6.463046 0.000000 0.000000 0.000000 -8.056426 -2.515169 0.124822 5.057641 2.873202 8.229285 -24.801223 1.820513 4.993657 21.426551 16.646759 46.741665 -19.369867 32.139995 28.022989 0.000000 0.000000 0.000000 
11.334496 23.762390 -35.272427 0.000000 0.000000 0.000000 68.726040 6.964103 -3.693193 -13.186216 -8.266372 29.284853 33.273458 -0.789373 -11.978776 33.057491 49.194352 -28.260555 -6.217307 -8.628082 -4.866196 0.000000 0.000000 0.000000 70.957217 3.153253 -3.416248 -42.069573 -38.069378 -37.120104 38.213792 24.861853 -10.816035 45.236391 -41.201207 35.441732 16.042800 17.548943 6.264265 0.000000 0.000000 0.000000 75.359895 6.394517 -6.396493 15.535067 0.914763 -2.163328 -8.387881 -3.751499 -0.126177 -0.021361 0.432520 -0.017614 0.000000 0.000000 0.000000 -6.821927 -0.955044 1.220571 -8.060051 1.553193 12.602041 -25.354244 -35.666800 -11.581377 0.000000 0.000000 0.000000 -11.375427 -1.272865 -0.906607 -0.752316 -11.563483 4.927464 -0.080753 1.425898 -5.375043 29.914927 -32.432361 -54.563813 -6.933728 -36.522838 -6.461978 0.000000 0.000000 0.000000 -8.055421 -2.510886 0.125180 5.055413 2.862410 8.225962 -24.809656 1.803733 4.986554 21.402152 16.598697 46.790026 -19.391512 32.128670 28.043427 0.000000 0.000000 0.000000 
11.334672 23.766296 -35.278576 0.000000 0.000000 0.000000 68.720760 6.962232 -3.687500 -13.182422 -8.266085 29.280314 33.278328 -0.777863 -11.976134 33.074494 49.193713 -28.266659 -6.207967 -8.623310 -4.878793 0.000000 0.000000 0.000000 70.948932 3.151595 -3.415133 -42.042096 -38.085490 -37.107636 38.219044 24.844075 -10.814765 45.215548 -41.222026 35.433392 16.060934 17.560124 6.252794 0.000000 0.000000 0.000000 75.357286 6.408839 -6.404352 15.545258 0.922678 -2.169660 -8.385962 -3.745011 -0.125096 -0.020932 0.435442 -0.018344 0.000000 0.000000 0.000000 -6.817278 -0.950884 1.221587 -8.059914 1.539166 12.652277 -25.367159 -35.703550 -11.595149 0.000000 0.000000 0.000000 -11.376701 -1.266975 -0.906578 -0.744875 -11.599637 4.944691 -0.090070 1.425499 -5.373162 29.897271 -32.435916 -54.556942 -6.931094 -36.476837 -6.456262 0.000000 0.000000 0.000000 -8.055932 -2.507247 0.127061 5.046651 2.824586 8.221822 -24.821357 1.789794 4.984085 21.368602 16.531402 46.832855 -19.429146 32.096541 28.090087 0.000000 0.000000 0.000000 
11.333812 23.771732 -35.286648 0.000000 0.000000 0.000000 68.714305 6.966277 -3.685261 -13.185729 -8.263348 29.273924 33.286883 -0.763754 -11.968322 33.092939 49.191323 -28.273583 -6.194651 -8.617118 -4.895884 0.000000 0.000000 0.000000 70.936856 3.149274 -3.411132 -42.009434 -38.107172 -37.093924 38.216394 24.819010 -10.811210 45.191308 -41.248086 35.425357 16.079771 17.575723 6.238122 0.000000 0.000000 0.000000 75.351924 6.423527 -6.414076 15.559787 0.933671 -2.178266 -8.382914 -3.738146 -0.123636 -0.021680 0.438677 -0.019114 0.000000 0.000000 0.000000 -6.811548 -0.945399 1.222859 -8.057984 1.516645 12.727758 -25.416456 -35.750696 -11.633229 0.000000 0.000000 0.000000 -11.378769 -1.260180 -0.904869 -0.735715 -11.652482 4.969775 -0.091338 1.420986 -5.394173 29.869394 -32.451001 -54.541274 -6.922241 -36.398638 -6.447803 0.000000 0.000000 0.000000 -8.056385 -2.503640 0.130254 5.033138 2.767292 8.212485 -24.832333 1.786900 5.000967 21.333502 16.458014 46.850416 -19.480159 32.058166 28.159495 0.000000 0.000000 0.000000 
11.332776 23.777435 -35.292088 0.000000 0.000000 0.000000 68.706881 6.976897 -3.686931 -13.194399 -8.262196 29.263324 33.299754 -0.748150 -11.956273 33.107419 49.188710 -28.274178 -6.181916 -8.610876 -4.913954 0.000000 0.000000 0.000000 70.923230 3.151282 -3.406772 -41.980737 -38.127694 -37.086838 38.218006 24.799261 -10.809334 45.175957 -41.260647 35.427631 16.094951 17.592942 6.227019 0.000000 0.000000 0.000000 75.344589 6.440365 -6.426796 15.575903 0.946018 -2.188163 -8.378491 -3.731014 -0.122018 -0.023332 0.439074 -0.020586 0.000000 0.000000 0.000000 -6.802773 -0.938862 1.224567 -8.055463 1.491649 12.818292 -25.515673 -35.792951 -11.701622 0.000000 0.000000 0.000000 -11.380243 -1.252369 -0.902209 -0.726613 -11.717451 4.999340 -0.087455 1.416886 -5.432730 29.829902 -32.478540 -54.519007 -6.910356 -36.287368 -6.439059 0.000000 0.000000 0.000000 -8.054638 -2.499531 0.133618 5.016919 2.701190 8.193106 -24.834617 1.782042 5.026516 21.302602 16.384470 46.832046 -19.534583 32.017413 28.240378 0.000000 0.000000 0.000000 
11.330667 23.783424 -35.298046 0.000000 0.000000 0.000000 68.699313 6.993796 -3.690787 -13.207292 -8.269950 29.247485 33.320190 -0.735414 -11.940738 33.124334 49.183632 -28.273085 -6.176996 -8.604955 -4.928453 0.000000 0.000000 0.000000 70.909364 3.160301 -3.403208 -41.962702 -38.143796 -37.092319 38.231260 24.786379 -10.809153 45.180294 -41.251829 35.442965 16.112186 17.608801 6.226113 0.000000 0.000000 0.000000 75.337738 6.459303 -6.441175 15.590301 0.957421 -2.198649 -8.371544 -3.723531 -0.120103 -0.023295 0.437642 -0.021050 0.000000 0.000000 0.000000 -6.789681 -0.931180 1.226568 -8.051844 1.471168 12.911913 -25.666116 -35.818414 -11.795500 0.000000 0.000000 0.000000 -11.379648 -1.244034 -0.899372 -0.719836 -11.790068 5.029243 -0.076832 1.439987 -5.488906 29.781069 -32.512134 -54.494446 -6.901519 -36.147557 -6.433370 0.000000 0.000000 0.000000 -8.050263 -2.494424 0.136495 5.000877 2.638665 8.161452 -24.844262 1.770364 5.062556 21.278532 16.314954 46.772920 -19.580651 31.972075 28.318803 0.000000 0.000000 0.000000 
11.329817 23.789700 -35.301952 0.000000 0.000000 0.000000 68.690236 7.015496 -3.694324 -13.222274 -8.289959 29.223842 33.348843 -0.725005 -11.922514 33.147919 49.178359 -28.272158 -6.179128 -8.599542 -4.934353 0.000000 0.000000 0.000000 70.893518 3.173572 -3.399652 -41.961926 -38.156538 -37.113902 38.256282 24.774066 -10.808051 45.208322 -41.224918 35.470333 16.145980 17.620146 6.241474 0.000000 0.000000 0.000000 75.332137 6.480757 -6.454011 15.597652 0.963456 -2.209464 -8.362479 -3.716138 -0.117826 -0.021914 0.436641 -0.021171 0.000000 0.000000 0.000000 -6.773106 -0.922248 1.229513 -8.040424 1.463334 12.996195 -25.850787 -35.830793 -11.899792 0.000000 0.000000 0.000000 -11.376556 -1.235934 -0.897714 -0.716533 -11.864185 5.055570 -0.066221 1.489660 -5.552817 29.728767 -32.536655 -54.477992 -6.904328 -35.993758 -6.434725 0.000000 0.000000 0.000000 -8.043260 -2.487489 0.138860 4.988417 2.591240 8.121074 -24.881580 1.739251 5.105395 21.253833 16.250697 46.679586 -19.610433 31.911207 28.383744 0.000000 0.000000 0.000000 
